<svg xmlns="http://www.w3.org/2000/svg" width="16" height="16" fill="currentColor" viewBox="0 0 16 16">
	<style type="text/css">
		.st0 {
			fill: none;
			stroke: #000000;
			stroke-miterlimit: 10;
		}

	</style>
	<g>
		<path d="M8,5c1.7,0,3,1.3,3,3s-1.3,3-3,3S5,9.7,5,8S6.3,5,8,5 M8,4C5.8,4,4,5.8,4,8s1.8,4,4,4s4-1.8,4-4S10.2,4,8,4L8,4z" />
	</g>
	<path class="st0" d="M0.7,6.2C1.4,3.2,4.4,1,8,1c3.6,0,6.6,2.2,7.3,5.2" />
	<path class="st0" d="M0.7,9.8C1.4,12.8,4.4,15,8,15c3.6,0,6.6-2.2,7.3-5.2" />
</svg>
